<?xml version="1.0" encoding="UTF-8" standalone="no"?>
<!-- Created with Inkscape (http://www.inkscape.org/) -->

<svg
   width="115.94032mm"
   height="60.889008mm"
   viewBox="0 0 115.94032 60.889008"
   version="1.1"
   id="svg5"
   inkscape:export-filename="logo.svg"
   inkscape:export-xdpi="96"
   inkscape:export-ydpi="96"
   xmlns:inkscape="http://www.inkscape.org/namespaces/inkscape"
   xmlns:sodipodi="http://sodipodi.sourceforge.net/DTD/sodipodi-0.dtd"
   xmlns="http://www.w3.org/2000/svg"
   xmlns:svg="http://www.w3.org/2000/svg">
  <sodipodi:namedview
     id="namedview7"
     pagecolor="#ffffff"
     bordercolor="#666666"
     borderopacity="1.0"
     inkscape:showpageshadow="2"
     inkscape:pageopacity="0.0"
     inkscape:pagecheckerboard="0"
     inkscape:deskcolor="#d1d1d1"
     inkscape:document-units="mm"
     showgrid="false" />
  <defs
     id="defs2" />
  <g
     inkscape:label="Layer 1"
     inkscape:groupmode="layer"
     id="layer1"
     transform="translate(-50.915361,-31.323089)">
    <g
       aria-label="MAAS"
       id="text113"
       style="font-size:70.5556px;line-height:1.25;letter-spacing:-26.4583px;word-spacing:0px;stroke:#ffffff;stroke-width:0.79375">
      <path
         d="M 98.020042,38.98719 79.957807,79.41555 H 78.970029 L 61.260573,40.609969 v 28.433908 q 0,5.362225 1.270001,7.126115 1.27,1.693335 5.362225,1.905002 V 79.41555 H 51.312233 v -1.340556 q 4.374447,-0.282223 5.573892,-1.905002 1.270001,-1.693334 1.270001,-7.126115 V 40.398302 q 0,-3.880558 -1.199445,-4.938892 -1.12889,-1.12889 -5.503337,-1.411113 v -1.340556 h 13.970009 l 16.298345,35.63058 15.592788,-35.63058 h 14.040564 v 1.340556 q -3.95111,0.352779 -5.08,1.481668 -1.05834,1.12889 -1.05834,4.868337 V 71.72499 q 0,3.739446 1.12889,4.938892 1.12889,1.128889 5.00945,1.411112 V 79.41555 H 91.599482 v -1.340556 q 4.162781,-0.282223 5.29167,-1.481668 1.12889,-1.270001 1.12889,-5.644448 z"
         style="font-family:FreeSerif;-inkscape-font-specification:FreeSerif"
         id="path1141" />
      <path
         d="m 135.76724,78.074994 v 1.340556 h -17.99168 v -1.340556 q 2.82223,-0.07056 3.88056,-0.564445 1.05834,-0.493889 1.05834,-1.834446 0,-1.693334 -1.34056,-4.727225 L 118.48112,64.17554 H 99.995552 l -3.245558,8.255006 q -0.564445,1.481667 -0.564445,2.751668 0,2.89278 4.797781,2.89278 V 79.41555 H 87.013321 v -1.340556 q 2.610557,-0.141111 4.021669,-1.975557 1.481668,-1.905001 4.727225,-9.595562 L 110.43778,31.861074 h 1.41111 l 17.56835,40.075582 q 1.69333,3.880558 2.82222,4.938893 1.12889,1.058334 3.52778,1.199445 z M 101.195,61.28276 h 16.29834 l -8.18445,-19.402791 z"
         style="font-family:FreeSerif;-inkscape-font-specification:FreeSerif"
         id="path1143" />
      <path
         d="m 160.17945,78.074994 v 1.340556 h -17.99168 v -1.340556 q 2.82222,-0.07056 3.88056,-0.564445 1.05833,-0.493889 1.05833,-1.834446 0,-1.693334 -1.34056,-4.727225 l -2.89278,-6.773338 h -18.48556 l -3.24556,8.255006 q -0.56445,1.481667 -0.56445,2.751668 0,2.89278 4.79778,2.89278 v 1.340556 h -13.97 v -1.340556 q 2.61055,-0.141111 4.02166,-1.975557 1.48167,-1.905001 4.72723,-9.595562 l 14.67557,-34.642801 h 1.41111 l 17.56834,40.075582 q 1.69334,3.880558 2.82223,4.938893 1.12889,1.058334 3.52778,1.199445 z M 125.6072,61.28276 h 16.29835 L 133.7211,41.879969 Z"
         style="font-family:FreeSerif;-inkscape-font-specification:FreeSerif"
         id="path1145" />
      <path
         d="m 159.33269,69.890544 q 0,-3.316114 -2.32833,-5.856115 -2.32834,-2.610558 -5.64445,-4.445003 -3.31611,-1.834446 -6.63223,-3.739447 -3.24556,-1.975557 -5.57389,-5.009448 -2.32834,-3.033891 -2.32834,-7.05556 0,-5.362226 3.59834,-8.678339 3.66889,-3.386669 8.60778,-3.386669 2.96334,0 6.42056,1.199445 3.45723,1.199445 4.16278,1.199445 1.83445,0 2.25778,-2.39889 h 1.48167 l 1.55222,15.028343 h -1.76389 q -1.69333,-6.208893 -5.22111,-9.172228 -3.45722,-2.963336 -7.69056,-2.963336 -3.24556,0 -5.29167,1.834446 -2.04611,1.834446 -2.04611,4.727225 0,2.822225 2.39889,5.362226 2.39889,2.540002 7.97278,5.644448 6.985,3.739447 10.08945,7.408339 3.10445,3.598336 3.10445,7.972783 0,5.432781 -4.16278,9.172228 -4.16278,3.668892 -10.23057,3.668892 -3.52778,0 -7.19667,-1.199446 -3.59833,-1.199445 -4.445,-1.199445 -0.77611,0 -1.34056,0.705556 -0.56444,0.635001 -0.635,1.622779 h -1.55222 l -2.11667,-14.957788 h 1.62278 q 2.61056,6.42056 6.06778,9.454451 3.45723,3.033891 8.18445,3.033891 3.88056,0 6.27945,-2.187224 2.39889,-2.257779 2.39889,-5.785559 z"
         style="font-family:FreeSerif;-inkscape-font-specification:FreeSerif"
         id="path1147" />
    </g>
    <text
       xml:space="preserve"
       style="font-size:10.5833px;line-height:1.25;font-family:FreeSerif;-inkscape-font-specification:FreeSerif;letter-spacing:2.64583px;stroke-width:0.264583"
       x="57.927013"
       y="90.031929"
       id="text1074"><tspan
         sodipodi:role="line"
         id="tspan1072"
         style="font-style:italic;font-variant:normal;font-weight:normal;font-stretch:normal;font-family:C059;-inkscape-font-specification:'C059 Italic';stroke-width:0.264583"
         x="57.927013"
         y="90.031929">Talent <tspan
   style="font-style:normal;font-variant:normal;font-weight:normal;font-stretch:normal;font-family:C059;-inkscape-font-specification:C059"
   id="tspan1078">Agency</tspan></tspan></text>
  </g>
</svg>
