<?xml version="1.0" encoding="UTF-8" standalone="no"?>
<!-- Created with Inkscape (http://www.inkscape.org/) -->

<svg
   width="115.94032mm"
   height="60.889008mm"
   viewBox="0 0 115.94032 60.889008"
   version="1.1"
   id="svg5"
   inkscape:export-filename="logo.svg"
   inkscape:export-xdpi="96"
   inkscape:export-ydpi="96"
   xmlns:inkscape="http://www.inkscape.org/namespaces/inkscape"
   xmlns:sodipodi="http://sodipodi.sourceforge.net/DTD/sodipodi-0.dtd"
   xmlns="http://www.w3.org/2000/svg"
   xmlns:svg="http://www.w3.org/2000/svg">
  <sodipodi:namedview
     id="namedview7"
     pagecolor="#ffffff"
     bordercolor="#666666"
     borderopacity="1.0"
     inkscape:showpageshadow="2"
     inkscape:pageopacity="0.0"
     inkscape:pagecheckerboard="0"
     inkscape:deskcolor="#d1d1d1"
     inkscape:document-units="mm"
     showgrid="false" />
  <defs
     id="defs2" />
  <g
     inkscape:label="Layer 1"
     inkscape:groupmode="layer"
     id="layer1"
     transform="translate(-50.915361,-31.323089)">
    <g
       aria-label="MAAS"
       id="text113"
       style="font-size:70.5556px;line-height:1.25;letter-spacing:-26.4583px;word-spacing:0px;stroke:#ffffff;stroke-width:0.79375">
      <path
         d="M 98.020042,38.98719 79.957807,79.41555 H 78.970029 L 61.260573,40.609969 v 28.433908 q 0,5.362225 1.270001,7.126115 1.27,1.693335 5.362225,1.905002 V 79.41555 H 51.312233 v -1.340556 q 4.374447,-0.282223 5.573892,-1.905002 1.270001,-1.693334 1.270001,-7.126115 V 40.398302 q 0,-3.880558 -1.199445,-4.938892 -1.12889,-1.12889 -5.503337,-1.411113 v -1.340556 h 13.970009 l 16.298345,35.63058 15.592788,-35.63058 h 14.040564 v 1.340556 q -3.95111,0.352779 -5.08,1.481668 -1.05834,1.12889 -1.05834,4.868337 V 71.72499 q 0,3.739446 1.12889,4.938892 1.12889,1.128889 5.00945,1.411112 V 79.41555 H 91.599482 v -1.340556 q 4.162781,-0.282223 5.29167,-1.481668 1.12889,-1.270001 1.12889,-5.644448 z"
         style="font-family:FreeSerif;-inkscape-font-specification:FreeSerif"
         id="path1141" />
      <path
         d="m 135.76724,78.074994 v 1.340556 h -17.99168 v -1.340556 q 2.82223,-0.07056 3.88056,-0.564445 1.05834,-0.493889 1.05834,-1.834446 0,-1.693334 -1.34056,-4.727225 L 118.48112,64.17554 H 99.995552 l -3.245558,8.255006 q -0.564445,1.481667 -0.564445,2.751668 0,2.89278 4.797781,2.89278 V 79.41555 H 87.013321 v -1.340556 q 2.610557,-0.141111 4.021669,-1.975557 1.481668,-1.905001 4.727225,-9.595562 L 110.43778,31.861074 h 1.41111 l 17.56835,40.075582 q 1.69333,3.880558 2.82222,4.938893 1.12889,1.058334 3.52778,1.199445 z M 101.195,61.28276 h 16.29834 l -8.18445,-19.402791 z"
         style="font-family:FreeSerif;-inkscape-font-specification:FreeSerif"
         id="path1143" />
      <path
         d="m 160.17945,78.074994 v 1.340556 h -17.99168 v -1.340556 q 2.82222,-0.07056 3.88056,-0.564445 1.05833,-0.493889 1.05833,-1.834446 0,-1.693334 -1.34056,-4.727225 l -2.89278,-6.773338 h -18.48556 l -3.24556,8.255006 q -0.56445,1.481667 -0.56445,2.751668 0,2.89278 4.79778,2.89278 v 1.340556 h -13.97 v -1.340556 q 2.61055,-0.141111 4.02166,-1.975557 1.48167,-1.905001 4.72723,-9.595562 l 14.67557,-34.642801 h 1.41111 l 17.56834,40.075582 q 1.69334,3.880558 2.82223,4.938893 1.12889,1.058334 3.52778,1.199445 z M 125.6072,61.28276 h 16.29835 L 133.7211,41.879969 Z"
         style="font-family:FreeSerif;-inkscape-font-specification:FreeSerif"
         id="path1145" />
      <path
         d="m 159.33269,69.890544 q 0,-3.316114 -2.32833,-5.856115 -2.32834,-2.610558 -5.64445,-4.445003 -3.31611,-1.834446 -6.63223,-3.739447 -3.24556,-1.975557 -5.57389,-5.009448 -2.32834,-3.033891 -2.32834,-7.05556 0,-5.362226 3.59834,-8.678339 3.66889,-3.386669 8.60778,-3.386669 2.96334,0 6.42056,1.199445 3.45723,1.199445 4.16278,1.199445 1.83445,0 2.25778,-2.39889 h 1.48167 l 1.55222,15.028343 h -1.76389 q -1.69333,-6.208893 -5.22111,-9.172228 -3.45722,-2.963336 -7.69056,-2.963336 -3.24556,0 -5.29167,1.834446 -2.04611,1.834446 -2.04611,4.727225 0,2.822225 2.39889,5.362226 2.39889,2.540002 7.97278,5.644448 6.985,3.739447 10.08945,7.408339 3.10445,3.598336 3.10445,7.972783 0,5.432781 -4.16278,9.172228 -4.16278,3.668892 -10.23057,3.668892 -3.52778,0 -7.19667,-1.199446 -3.59833,-1.199445 -4.445,-1.199445 -0.77611,0 -1.34056,0.705556 -0.56444,0.635001 -0.635,1.622779 h -1.55222 l -2.11667,-14.957788 h 1.62278 q 2.61056,6.42056 6.06778,9.454451 3.45723,3.033891 8.18445,3.033891 3.88056,0 6.27945,-2.187224 2.39889,-2.257779 2.39889,-5.785559 z"
         style="font-family:FreeSerif;-inkscape-font-specification:FreeSerif"
         id="path1147" />
    </g>
    <g
       aria-label="Talent Agency"
       id="text1074"
       style="font-size:10.5833px;line-height:1.25;font-family:FreeSerif;-inkscape-font-specification:FreeSerif;letter-spacing:2.64583px;stroke-width:0.264583">
      <path
         d="m 65.610489,82.390787 h -6.328813 l -0.931331,2.730491 0.433916,0.0635 c 0.920747,-1.746245 1.460495,-2.27541 2.402409,-2.296576 h 0.148166 c 0.243416,0 0.349249,0.05292 0.349249,0.179916 0,0.0635 -0.01058,0.126999 -0.05292,0.264582 l -1.439328,5.397483 c -0.137583,0.518582 -0.15875,0.560915 -0.243416,0.656165 -0.105833,0.105833 -0.328083,0.148166 -0.888998,0.148166 h -0.232832 l -0.05292,0.497415 h 3.661822 l 0.0635,-0.497415 h -0.391582 c -0.687915,0 -0.836081,-0.05292 -0.836081,-0.285749 0,-0.08467 0.04233,-0.296333 0.09525,-0.518582 l 1.407579,-5.249316 c 0.158749,-0.560915 0.179916,-0.582082 0.529165,-0.592665 h 0.148166 c 0.402165,0 0.709081,0.09525 0.89958,0.264582 0.243416,0.232833 0.391582,0.740831 0.391582,1.354663 0,0.232832 0,0.317499 -0.02117,0.740831 l 0.444498,0.05292 z"
         style="font-style:italic;font-family:C059;-inkscape-font-specification:'C059 Italic'"
         id="path1276" />
      <path
         d="m 71.64295,85.216528 -0.285749,0.952497 c -0.07408,-0.656165 -0.603248,-1.111247 -1.291163,-1.111247 -0.656164,0 -1.248829,0.328082 -1.746244,0.973664 -0.539748,0.698498 -0.857247,1.587495 -0.857247,2.434159 0,1.037163 0.624414,1.725078 1.566328,1.725078 0.666748,0 1.079497,-0.264583 1.608662,-1.026581 -0.04233,0.15875 -0.05292,0.232833 -0.05292,0.338666 0,0.412749 0.264583,0.687915 0.645581,0.687915 0.465666,0 0.867831,-0.254 1.238246,-0.772581 0.22225,-0.306916 0.391583,-0.603248 0.518582,-0.878414 l -0.328082,-0.179916 c -0.402166,0.814914 -0.772581,1.248829 -1.047747,1.248829 -0.126999,0 -0.222249,-0.116416 -0.222249,-0.264582 0,-0.116417 0.04233,-0.296333 0.116416,-0.571499 l 1.05833,-3.555988 z m -1.396995,0.423332 c 0.497415,0 0.80433,0.349249 0.80433,0.941913 0,0.613832 -0.211666,1.449912 -0.539748,2.11666 -0.328082,0.656165 -0.709081,0.952497 -1.238246,0.952497 -0.529165,0 -0.846664,-0.391582 -0.846664,-1.037163 0,-0.931331 0.412749,-2.02141 0.973664,-2.603492 0.232832,-0.243416 0.529165,-0.370415 0.846664,-0.370415 z"
         style="font-style:italic;font-family:C059;-inkscape-font-specification:'C059 Italic'"
         id="path1278" />
      <path
         d="m 79.284092,82.232037 -2.106077,0.15875 -0.04233,0.380998 h 0.328082 c 0.433916,0 0.603248,0.09525 0.603248,0.328083 0,0.105833 -0.03175,0.243416 -0.09525,0.465665 l -1.344079,4.540235 c -0.254,0.867831 -0.28575,1.005414 -0.28575,1.34408 0,0.455081 0.264583,0.740831 0.687915,0.740831 0.666748,0 1.344079,-0.560915 1.979077,-1.640412 l -0.328082,-0.179916 c -0.550332,0.836081 -1.005414,1.280579 -1.301746,1.280579 -0.116416,0 -0.1905,-0.08467 -0.1905,-0.222249 0,-0.127 0,-0.137583 0.137583,-0.582082 z"
         style="font-style:italic;font-family:C059;-inkscape-font-specification:'C059 Italic'"
         id="path1280" />
      <path
         d="m 85.93039,88.804266 c -0.624415,0.645582 -1.079497,0.888997 -1.640411,0.888997 -0.634998,0 -1.026581,-0.423332 -1.026581,-1.100663 0,-0.07408 0.01058,-0.222249 0.02117,-0.359832 1.248829,-0.296332 1.439329,-0.359832 1.926161,-0.571498 0.825497,-0.359832 1.269996,-0.899581 1.269996,-1.513412 0,-0.645581 -0.507999,-1.09008 -1.259413,-1.09008 -1.545162,0 -2.942157,1.566329 -2.942157,3.30199 0,1.142996 0.687914,1.830911 1.83091,1.830911 0.814914,0 1.502829,-0.359833 2.074327,-1.100664 z m -2.592908,-0.984247 c 0.243415,-1.428745 0.888997,-2.338909 1.672161,-2.338909 0.349249,0 0.582081,0.243416 0.582081,0.603248 0,0.507999 -0.328082,0.963081 -0.910163,1.28058 -0.380999,0.222249 -0.645582,0.306915 -1.344079,0.455081 z"
         style="font-style:italic;font-family:C059;-inkscape-font-specification:'C059 Italic'"
         id="path1282" />
      <path
         d="m 92.111024,85.057778 -1.915577,0.15875 -0.04233,0.380998 h 0.253999 c 0.433915,0 0.603248,0.09525 0.603248,0.328083 0,0.105833 -0.02117,0.222249 -0.09525,0.465665 l -1.079496,3.640655 h 0.920747 L 91.19028,88.56085 c 0.275166,-0.920747 0.402165,-1.217079 0.783164,-1.777994 0.455082,-0.677331 1.015997,-1.09008 1.471079,-1.09008 0.243416,0 0.423332,0.1905 0.423332,0.433915 0,0.1905 -0.04233,0.402166 -0.15875,0.740831 l -0.560915,1.650995 c -0.137582,0.423332 -0.190499,0.656165 -0.190499,0.878414 0,0.455082 0.317499,0.793748 0.730248,0.793748 0.677331,0 1.375829,-0.571499 1.947327,-1.587495 l -0.306916,-0.22225 c -0.539748,0.846664 -0.984247,1.269996 -1.322912,1.269996 -0.09525,0 -0.179916,-0.08467 -0.179916,-0.201082 0,-0.116417 0.03175,-0.243416 0.201082,-0.709082 l 0.497415,-1.460495 c 0.169333,-0.486832 0.254,-0.888997 0.254,-1.195913 0,-0.560915 -0.455082,-1.02658 -1.015997,-1.02658 -0.624415,0 -1.248829,0.455082 -1.957911,1.428746 z"
         style="font-style:italic;font-family:C059;-inkscape-font-specification:'C059 Italic'"
         id="path1284" />
      <path
         d="m 101.64656,83.4597 h -0.92074 l -0.51859,1.756828 h -0.994825 l -0.148167,0.497415 h 0.994832 l -0.793749,2.666991 c -0.158749,0.539749 -0.201083,0.761998 -0.201083,1.005414 0,0.455082 0.328083,0.804331 0.761998,0.804331 0.497414,0 1.090084,-0.328083 1.460494,-0.825498 0.14817,-0.201083 0.254,-0.370415 0.52917,-0.814914 l -0.3175,-0.211666 c -0.66675,1.005414 -0.96308,1.291163 -1.31233,1.291163 -0.14817,0 -0.243418,-0.116417 -0.243418,-0.296333 0,-0.08467 0.01058,-0.158749 0.03175,-0.243416 l 1.005418,-3.376072 h 1.15358 l 0.14816,-0.497415 h -1.15358 z"
         style="font-style:italic;font-family:C059;-inkscape-font-specification:'C059 Italic'"
         id="path1286" />
      <path
         d="m 114.75927,82.24262 h -0.4445 l -2.43415,6.170064 c -0.28575,0.825498 -0.56092,1.079497 -1.16417,1.12183 h -0.0423 v 0.497415 h 2.80457 v -0.497415 h -0.21166 c -0.5715,0 -0.85725,-0.201083 -0.85725,-0.603248 0,-0.137583 0.0318,-0.264583 0.0953,-0.444499 l 0.34925,-0.93133 h 2.80457 l 0.5715,1.418162 c 0.0635,0.169333 0.0847,0.232833 0.0847,0.285749 0,0.169333 -0.26458,0.275166 -0.65617,0.275166 h -0.4445 v 0.497415 h 3.28083 v -0.497415 h -0.14817 c -0.55033,-0.01058 -0.64558,-0.07408 -0.889,-0.677331 z m -0.51858,1.735662 1.19591,3.005657 h -2.37066 z"
         style="font-family:C059;-inkscape-font-specification:C059"
         id="path1288" />
      <path
         d="m 123.29996,89.248765 c -0.58208,-0.01058 -0.61383,-0.02117 -0.74083,-0.09525 -0.0741,-0.04233 -0.127,-0.158749 -0.127,-0.275166 0,-0.317499 0.28575,-0.455082 0.99483,-0.476248 0.99483,-0.02117 1.15358,-0.04233 1.51341,-0.201083 0.635,-0.285749 0.98425,-0.83608 0.98425,-1.534578 0,-0.423332 -0.0953,-0.687915 -0.381,-1.037164 0.17992,-0.190499 0.27517,-0.253999 0.35983,-0.253999 0.0529,0 0.0847,0.03175 0.10584,0.148166 0.0423,0.254 0.21166,0.391582 0.47625,0.391582 0.27516,0 0.47624,-0.222249 0.47624,-0.507998 0,-0.359832 -0.28575,-0.613831 -0.69849,-0.613831 -0.33867,0 -0.52917,0.105833 -1.016,0.550331 -0.4445,-0.296332 -0.78316,-0.402165 -1.31233,-0.402165 -1.25941,0 -2.08491,0.698498 -2.08491,1.756828 0,0.624414 0.33867,1.153579 0.889,1.418162 -0.70908,0.158749 -1.00542,0.476248 -1.00542,1.05833 0,0.465665 0.21167,0.740831 0.70908,0.910164 -0.65616,0.243415 -0.97366,0.571498 -0.97366,1.005413 0,0.317499 0.21167,0.613831 0.55033,0.793747 0.41275,0.211666 0.92075,0.296333 1.68275,0.296333 1.76741,0 2.64582,-0.560915 2.64582,-1.672162 0,-0.529164 -0.24341,-0.952496 -0.62441,-1.111246 -0.28575,-0.105833 -0.62442,-0.148166 -1.34408,-0.148166 z m 0.62442,-3.852321 c 0.65616,0 1.02658,0.455082 1.02658,1.280579 0,0.825497 -0.40217,1.322912 -1.06892,1.322912 -0.65616,0 -1.06891,-0.497415 -1.06891,-1.291162 0,-0.836081 0.40217,-1.312329 1.11125,-1.312329 z m -0.0952,4.762485 c 0.87841,0 0.94191,0 1.09008,0.02117 0.43391,0.04233 0.68791,0.275166 0.68791,0.613832 0,0.603248 -0.68791,0.952497 -1.86266,0.952497 -0.89958,0 -1.39699,-0.264583 -1.39699,-0.740831 0,-0.349249 0.19049,-0.582082 0.69849,-0.846664 z"
         style="font-family:C059;-inkscape-font-specification:C059"
         id="path1290" />
      <path
         d="m 134.35949,87.650687 c 0.0106,-1.587495 -0.889,-2.709325 -2.18016,-2.709325 -1.35467,0 -2.37066,1.174746 -2.37066,2.762241 0,1.492245 0.96308,2.487076 2.39182,2.487076 1.016,0 1.72508,-0.497416 2.159,-1.502829 l -0.37042,-0.201083 c -0.43391,0.814914 -0.87841,1.132413 -1.58749,1.132413 -0.53975,0 -0.93133,-0.222249 -1.2065,-0.698497 -0.1905,-0.317499 -0.27517,-0.687915 -0.26458,-1.269996 z m -3.41841,-0.455082 c 0,-0.328083 0.0423,-0.560915 0.14817,-0.857248 0.22225,-0.634998 0.56091,-0.941913 1.07949,-0.941913 0.635,0 1.05833,0.560915 1.05833,1.418162 0,0.296332 -0.0952,0.380999 -0.43391,0.380999 z"
         style="font-family:C059;-inkscape-font-specification:C059"
         id="path1292" />
      <path
         d="m 139.49237,85.100111 -1.83091,0.116417 v 0.455082 h 0.381 c 0.40217,0.01058 0.45508,0.07408 0.45508,0.529165 v 2.529408 0.253999 0.243416 c -0.0106,0.15875 -0.0212,0.22225 -0.0635,0.275166 -0.0741,0.09525 -0.27516,0.137583 -0.73024,0.148166 h -0.0423 v 0.380999 h 2.67758 V 89.65093 h -0.0423 c -0.70908,-0.02117 -0.80433,-0.07408 -0.80433,-0.455082 V 88.730183 87.62952 c 0,-0.518582 0.0741,-0.99483 0.1905,-1.238246 0.22225,-0.476249 0.6985,-0.804331 1.15358,-0.804331 0.27517,0 0.59267,0.148166 0.75142,0.370416 0.15875,0.232832 0.23283,0.550331 0.23283,1.05833 v 1.714494 0.497415 c -0.0106,0.15875 -0.0212,0.22225 -0.0635,0.275166 -0.0741,0.09525 -0.28575,0.137583 -0.74083,0.148166 h -0.0423 v 0.380999 h 2.67757 V 89.65093 h -0.0423 c -0.6985,-0.02117 -0.79375,-0.07408 -0.79375,-0.455082 v -0.465665 -1.661578 c 0,-0.761997 -0.0317,-0.952497 -0.22225,-1.312329 -0.26458,-0.507998 -0.79375,-0.814914 -1.42875,-0.814914 -0.68791,0 -1.20649,0.317499 -1.67216,1.015997 z"
         style="font-family:C059;-inkscape-font-specification:C059"
         id="path1294" />
      <path
         d="m 150.58366,88.476184 c -0.33867,0.761998 -0.6985,1.068913 -1.24883,1.068913 -0.84667,0 -1.37583,-0.772581 -1.37583,-2.010827 0,-1.291162 0.51858,-2.137826 1.30174,-2.137826 0.3175,0 0.59267,0.148166 0.59267,0.317499 0,0.03175 -0.0106,0.0635 -0.0635,0.126999 -0.16933,0.201083 -0.21167,0.306916 -0.21167,0.486832 0,0.349249 0.26458,0.592665 0.635,0.592665 0.381,0 0.64558,-0.296332 0.64558,-0.719664 0,-0.719665 -0.70908,-1.259413 -1.65099,-1.259413 -1.37583,0 -2.36008,1.12183 -2.36008,2.709325 0,1.502828 0.89958,2.539992 2.21191,2.539992 0.94191,0 1.48166,-0.433916 1.93674,-1.555746 z"
         style="font-family:C059;-inkscape-font-specification:C059"
         id="path1296" />
      <path
         d="m 156.97595,88.68785 -1.16416,-2.719908 c -0.0423,-0.105833 -0.0635,-0.15875 -0.0635,-0.211666 0,-0.201083 0.127,-0.275166 0.48683,-0.275166 h 0.22225 v -0.380999 h -2.51883 v 0.380999 h 0.11642 c 0.35983,0.01058 0.49741,0.116416 0.71966,0.571498 l 1.72508,3.905238 -0.17991,0.370415 c -0.381,0.804331 -0.87842,1.365246 -1.21708,1.365246 -0.0952,0 -0.16934,-0.04233 -0.16934,-0.105833 0,-0.02117 0.0106,-0.05292 0.0212,-0.09525 0.0317,-0.09525 0.0529,-0.190499 0.0529,-0.275165 0,-0.275166 -0.22225,-0.476249 -0.53975,-0.476249 -0.37042,0 -0.635,0.275166 -0.635,0.656165 0,0.476248 0.40217,0.814914 0.96308,0.814914 0.56092,0 1.03716,-0.275166 1.4605,-0.846664 0.32808,-0.433916 0.53974,-0.878414 1.00541,-2.031994 l 1.2065,-2.995074 c 0.24341,-0.613831 0.47624,-0.846664 0.88899,-0.857247 h 0.0635 v -0.380999 h -2.11666 v 0.380999 h 0.16934 c 0.40216,0 0.57149,0.116416 0.57149,0.391582 0,0.116417 -0.0317,0.243416 -0.10583,0.423332 z"
         style="font-family:C059;-inkscape-font-specification:C059"
         id="path1298" />
    </g>
  </g>
</svg>
